<svg version="1.2" xmlns="http://www.w3.org/2000/svg" viewBox="0 0 1031 1024" width="1031" height="1024">
	<title>default-svg</title>
	<style>
		.s0 { fill: #3f70ff } 
		.s1 { fill: #2a58d8 } 
		.s2 { fill: #c6e1ff } 
		.s3 { fill: #f5f6fa } 
	</style>
	<g id="Layer 1">
		<path class="s0" d="m156.2 31c-20.6 0-40.9 4-59.9 11.9-19 7.9-36.3 19.4-50.8 33.9-14.6 14.6-26.1 31.8-34 50.8-7.8 19-11.9 39.4-11.9 59.9v648.3c0 20.6 4.1 40.9 11.9 59.9 7.9 19 19.4 36.2 34 50.8 14.5 14.5 31.8 26.1 50.8 33.9 19 7.9 39.3 11.9 59.9 11.9h488.1c20.5 0 40.9-4 59.9-11.9 19-7.8 36.2-19.4 50.8-33.9 14.5-14.6 26-31.8 33.9-50.8 7.9-19 11.9-39.3 11.9-59.9v-482.6q0.1-5.9-1-11.7-1.1-5.8-3.3-11.3-2.3-5.5-5.5-10.4-3.3-4.9-7.5-9.1l-262.6-262.2q-4.2-4.1-9-7.4-4.9-3.3-10.3-5.5-5.4-2.3-11.1-3.4-5.8-1.2-11.6-1.2z"/>
		<path class="s1" d="m783.5 310.7l-262.6-262.2q-3.1-3.1-6.7-5.7-3.5-2.6-7.4-4.6-3.8-2.1-8-3.5-4.1-1.5-8.4-2.3c-0.9-0.1-1.8-0.1-2.6 0.2-0.8 0.2-1.6 0.6-2.2 1.2-0.7 0.6-1.2 1.3-1.5 2.1-0.3 0.8-0.5 1.7-0.4 2.5v128.3c0 24 4.7 47.8 13.9 70 9.2 22.2 22.7 42.3 39.6 59.3 17 17 37.2 30.5 59.4 39.7 22.2 9.2 46 13.9 70 13.9h126.8q1.3 0 2.4-0.6 1.2-0.6 2-1.6 0.9-1 1.2-2.2 0.3-1.3 0.1-2.6-0.6-4.4-1.9-8.8-1.3-4.3-3.3-8.4-2-4-4.6-7.7-2.6-3.7-5.8-7z"/>
		<path class="s2" d="m673.3 319.1h117q-0.8-1.1-1.6-2.2-0.7-1.1-1.6-2.2-0.8-1-1.7-2-0.9-1-1.9-2l-262.6-262.2q-1-0.9-1.9-1.7-1-0.9-2-1.7-1-0.8-2-1.6-1-0.7-2.1-1.5v116.7c0 21.1 4.2 41.9 12.3 61.4 8 19.5 19.8 37.1 34.7 52 14.9 14.9 32.6 26.7 52.1 34.8 19.4 8.1 40.3 12.2 61.3 12.2z"/>
		<path class="s3" d="m245.5 490.8c-0.5-10.8 0-21.6 1.7-32.2 1.6-10.7 4.3-21.1 8.1-31.2 3.7-10.1 8.5-19.8 14.2-29 5.7-9.1 12.3-17.7 19.7-25.5 7.6-7.4 16.1-13.9 25.1-19.6 9-5.6 18.5-10.4 28.5-14.1 10-3.7 20.3-6.4 30.8-8 10.5-1.6 21.2-2.1 31.8-1.5 9.5-0.4 18.9 0 28.3 1.4 9.4 1.3 18.7 3.5 27.6 6.6 9 3 17.7 6.9 25.9 11.6 8.3 4.6 16.1 10 23.3 16.2 6.6 5.8 12.5 12.3 17.6 19.5 5.1 7.1 9.5 14.7 12.9 22.8 3.5 8.1 6 16.5 7.6 25.1 1.7 8.6 2.3 17.4 2 26.2q0 58.8-78.7 123.4c-7.1 4.9-13.7 10.6-19.4 17-5.8 6.5-10.9 13.5-15 21.1-4.2 7.6-7.4 15.6-9.7 24-2.3 8.3-3.6 16.9-3.9 25.5v12.3h-55.5v-6.5q-0.4-8.9-0.1-17.7 0.4-8.9 1.5-17.7 1.1-8.7 3.1-17.4 1.9-8.6 4.6-17.1 3.9-7.3 8.6-14.2 4.6-6.9 9.9-13.3 5.3-6.5 11.2-12.3 5.9-5.9 12.3-11.1l22.4-19.7c6.4-4.7 12.3-10.1 17.6-16 5.2-6 9.9-12.5 13.8-19.4 3.9-6.9 7-14.3 9.4-21.9 2.3-7.6 3.9-15.4 4.6-23.3 0.1-5.2-0.3-10.5-1.2-15.6-1-5.1-2.5-10.1-4.6-14.9-2.1-4.8-4.7-9.3-7.7-13.5-3.1-4.2-6.6-8.1-10.6-11.5-4.2-3.6-8.7-6.9-13.5-9.7-4.8-2.8-9.9-5.1-15.1-7-5.3-1.8-10.7-3.1-16.2-4-5.5-0.8-11.1-1.1-16.6-0.9q-96.1 0-97.3 112.4zm196.9 283c0.2 5.5-0.7 10.9-2.6 16-1.9 5.1-4.8 9.8-8.5 13.7-3.8 4-8.2 7.2-13.2 9.4-5 2.3-10.3 3.5-15.8 3.7h-12.9c-5.5-0.2-10.8-1.5-15.7-3.7-5-2.3-9.4-5.5-13.1-9.4-3.7-4-6.6-8.7-8.5-13.8-1.9-5-2.8-10.4-2.6-15.9-0.2-5.4 0.7-10.8 2.6-15.8 1.9-5.1 4.8-9.8 8.5-13.7 3.7-4 8.1-7.1 13.1-9.4 4.9-2.2 10.2-3.4 15.7-3.6h12.9c5.4 0.2 10.8 1.4 15.7 3.6 5 2.3 9.5 5.4 13.2 9.4 3.7 3.9 6.6 8.6 8.5 13.6 2 5.1 2.9 10.5 2.7 15.9z"/>
	</g>
</svg>