<svg version="1.2" xmlns="http://www.w3.org/2000/svg" viewBox="0 0 1024 1024" width="1024" height="1024">
	<title>doc-svg</title>
	<style>
		.s0 { fill: #3f70ff } 
		.s1 { fill: #2a58d8 } 
		.s2 { fill: #c6e1ff } 
		.s3 { fill: #f5f6fa } 
	</style>
	<g id="Layer 1">
		<path class="s0" d="m154.8 38c-20.3 0-40.4 3.9-59.1 11.7-18.8 7.7-35.8 19.1-50.2 33.5-14.3 14.3-25.7 31.4-33.5 50.1-7.7 18.8-11.7 38.9-11.6 59.1v639.6c-0.1 20.3 3.9 40.4 11.6 59.1 7.8 18.8 19.2 35.8 33.5 50.2 14.4 14.3 31.4 25.7 50.2 33.4 18.7 7.8 38.8 11.8 59.1 11.7h481.3c20.3 0 40.4-4 59.1-11.7 18.8-7.8 35.8-19.2 50.1-33.5 14.4-14.3 25.7-31.4 33.5-50.1 7.8-18.7 11.8-38.8 11.8-59.1v-476.1q0-5.8-1.1-11.4-1.1-5.7-3.2-11-2.2-5.3-5.4-10.2-3.1-4.8-7.2-8.9l-259.3-259.1q-4.1-4.1-8.9-7.3-4.8-3.2-10.1-5.5-5.4-2.2-11-3.3-5.7-1.2-11.5-1.2z"/>
		<path class="s1" d="m773.7 314.4l-259.3-259.1q-3.1-3.1-6.6-5.6-3.4-2.6-7.3-4.6-3.8-2-7.9-3.5-4.1-1.4-8.3-2.2c-0.9-0.1-1.7-0.1-2.5 0.2-0.9 0.2-1.6 0.6-2.3 1.2-0.6 0.6-1.1 1.3-1.4 2-0.4 0.8-0.5 1.7-0.5 2.5v125.3c0 23.8 4.7 47.3 13.7 69.2 9.1 21.9 22.4 41.8 39.1 58.6 16.8 16.8 36.7 30.1 58.6 39.2 21.9 9.1 45.4 13.8 69.1 13.8h125.4q1.2-0.1 2.4-0.6 1.1-0.6 2-1.6 0.8-1 1.1-2.2 0.3-1.2 0.1-2.5-0.7-4.2-2-8.3-1.4-4.1-3.3-7.9-2-3.8-4.5-7.3-2.5-3.5-5.6-6.6z"/>
		<path class="s2" d="m664.5 322.2h115.4q-0.7-1-1.4-2-0.7-1-1.5-2-0.8-1-1.6-1.9-0.8-1-1.7-1.9l-259.3-259.1q-0.9-0.9-1.9-1.7-0.9-0.9-1.9-1.7-1-0.8-2-1.6-1-0.7-2.1-1.4v115.1c0 20.8 4.1 41.3 12.1 60.5 7.9 19.2 19.5 36.6 34.2 51.3 14.7 14.7 32.1 26.4 51.3 34.3 19.1 8 39.7 12.1 60.4 12.1z"/>
		<path class="s3" d="m63.1 462h38.4l15.2 84.6 4.5 27.7 4.2 27.7q5.7-26.5 12.1-55.4l22.3-84.6h33.6l22.3 84.6c1.6 7.1 3.5 16.3 6.1 27.2l7.1 28.2 8.6-55.4 15.1-84.6h36.5l-36.5 173.6h-47.4l-21.5-86c-3.3-15.1-6.2-28.6-8.3-40l-3.8 19.9c-1.6 7.6-3.1 14.2-4.5 20.1l-20.8 86h-47.4zm263.6 159c-3.5-3.2-6.6-6.8-9.3-10.7-2.7-3.8-5-8-6.9-12.3-1.8-4.4-3.2-9-4-13.6-0.9-4.7-1.2-9.4-1.1-14.1-0.2-4.8 0.1-9.6 1-14.3 0.8-4.7 2.1-9.3 4-13.7 1.8-4.4 4.1-8.6 6.9-12.5 2.7-3.9 5.9-7.5 9.4-10.7q4.8-4.4 10.3-7.9 5.6-3.4 11.7-5.8 6-2.3 12.5-3.5 6.4-1.1 12.9-1 6.5-0.1 12.9 1.1 6.4 1.2 12.5 3.5 6.1 2.4 11.6 5.8 5.6 3.4 10.4 7.8c3.5 3.3 6.6 6.9 9.3 10.8 2.7 3.9 5 8.1 6.8 12.5 1.8 4.4 3.2 9 4 13.7 0.8 4.7 1.2 9.4 1 14.2 0.1 4.7-0.3 9.4-1.1 14.1-0.9 4.6-2.2 9.1-4 13.5-1.8 4.4-4.1 8.5-6.8 12.4-2.7 3.9-5.8 7.4-9.2 10.7-6.7 5.7-14.3 10.2-22.6 13.3-8.2 3.1-16.9 4.7-25.7 4.7-8.8 0-17.6-1.6-25.8-4.7-8.3-3.1-15.9-7.6-22.6-13.3zm71.1-21.3q2.1-3.3 3.7-6.8 1.5-3.6 2.5-7.3 1-3.8 1.4-7.6 0.4-3.9 0.2-7.7 0.2-3.9-0.2-7.7-0.4-3.9-1.4-7.6-1-3.8-2.6-7.3-1.5-3.5-3.6-6.8-2-2.8-4.6-5-2.7-2.3-5.8-3.8-3.1-1.4-6.5-2.1-3.3-0.7-6.8-0.5-3.4-0.2-6.8 0.4-3.4 0.7-6.5 2.2-3.2 1.5-5.8 3.7-2.6 2.3-4.6 5.1-2.2 3.3-3.8 6.9-1.7 3.5-2.7 7.4-1 3.8-1.4 7.7-0.4 3.9-0.1 7.9-0.3 3.8 0.1 7.7 0.4 3.9 1.5 7.6 1 3.8 2.6 7.3 1.6 3.5 3.8 6.7 2 2.8 4.6 5.1 2.7 2.2 5.8 3.6 3.1 1.5 6.5 2.1 3.4 0.6 6.8 0.4 3.5 0.2 6.9-0.5 3.4-0.7 6.5-2.2 3.1-1.6 5.7-3.8 2.6-2.3 4.6-5.1zm78.4-95.5h31l2.6 23.7c1.9-3.9 4.3-7.5 7.2-10.7 2.8-3.2 6.1-6 9.7-8.3 3.7-2.4 7.6-4.2 11.7-5.5 4.1-1.2 8.4-1.9 12.7-2q2.1-0.1 4.3 0.1 2.2 0.2 4.3 0.5 2.1 0.4 4.3 0.9 2.1 0.6 4.1 1.3l-6.9 29.8q-1.8-0.5-3.6-0.9-1.9-0.4-3.7-0.7-1.9-0.2-3.8-0.4-1.9-0.1-3.8-0.1c-3.7 0.1-7.4 0.8-10.9 2.1-3.5 1.2-6.8 3-9.7 5.3-3 2.2-5.6 4.9-7.7 8-2.1 3-3.7 6.4-4.8 10v78.4h-37zm120.3 116.5q-4.2-5.3-7.3-11.3-3.2-6-5.2-12.5-2-6.4-2.9-13.2-0.8-6.7-0.4-13.5c-0.2-4.6 0-9.2 0.7-13.8 0.7-4.6 1.9-9.1 3.5-13.4 1.5-4.4 3.5-8.6 5.9-12.6 2.4-3.9 5.2-7.7 8.3-11.1 2.7-2.9 5.7-5.6 8.9-7.9 3.2-2.3 6.6-4.2 10.2-5.8 3.7-1.6 7.4-2.8 11.3-3.6 3.9-0.8 7.8-1.2 11.8-1.2q5.1 0.1 10 1.1 5 0.9 9.7 2.8 4.7 1.8 9 4.5 4.3 2.7 8 6.1l-1.6-21.8v-45.2h37.9v187.3h-30.6l-3.1-13.5q-4 3.9-8.6 6.9-4.7 3.1-9.8 5.2-5.2 2.2-10.6 3.4-5.4 1.2-11 1.3c-4.1 0.3-8.2 0.1-12.3-0.6-4.1-0.7-8-1.9-11.8-3.4-3.8-1.6-7.4-3.6-10.8-6-3.4-2.4-6.4-5.1-9.2-8.2zm79.9-23.7v-57.8q-2.8-2.4-5.9-4.3-3.2-1.8-6.6-3.1-3.4-1.3-7-1.9-3.7-0.7-7.3-0.6-3.1-0.1-6.1 0.6-3 0.7-5.8 2-2.8 1.4-5.2 3.4-2.4 1.9-4.2 4.4-2.4 3.2-4.1 6.8-1.7 3.6-2.9 7.5-1.1 3.8-1.5 7.8-0.5 4-0.3 8c0 27.2 10 40.7 30.1 40.7q3.9 0 7.7-1 3.8-0.9 7.2-2.6 3.5-1.8 6.5-4.3 3-2.5 5.4-5.6z"/>
	</g>
</svg>