<svg version="1.2" xmlns="http://www.w3.org/2000/svg" viewBox="0 0 1024 1024" width="1024" height="1024">
	<title>img-svg</title>
	<style>
		.s0 { fill: #41cc8b } 
		.s1 { fill: #05b25f } 
		.s2 { fill: #b0f9d7 } 
		.s3 { fill: #f5f6fa } 
	</style>
	<g>
		<path id="svg_1" class="s0" d="m163.2 11.4c-21.5 0-42.7 4.3-62.5 12.5-19.8 8.2-37.8 20.2-53 35.4-15.2 15.1-27.2 33.1-35.4 52.9-8.2 19.9-12.4 41.1-12.4 62.5v676.4c0 21.4 4.2 42.7 12.4 62.5 8.2 19.8 20.2 37.8 35.4 53 15.2 15.1 33.2 27.1 53 35.4 19.8 8.2 41 12.4 62.5 12.4h509.2c21.6 0.1 43-4.2 62.9-12.4 20-8.2 38.1-20.3 53.3-35.6 15.2-15.3 27.3-33.4 35.5-53.4 8.1-20 12.3-41.4 12.2-62.9v-502.5q0-6.1-1.2-12.1-1.2-6-3.6-11.7-2.3-5.6-5.7-10.7-3.5-5.1-7.8-9.4l-274.3-274q-4.4-4.3-9.5-7.8-5.1-3.4-10.7-5.7-5.7-2.4-11.7-3.6-6.1-1.2-12.2-1.2z"/>
		<path id="svg_2" class="s1" d="m817.5 303.7l-273.8-274q-3.3-3.2-6.9-5.9-3.7-2.7-7.8-4.8-4-2.2-8.3-3.7-4.3-1.5-8.8-2.4c-0.9-0.1-1.9-0.1-2.7 0.2-0.9 0.2-1.7 0.7-2.4 1.3-0.7 0.6-1.3 1.3-1.6 2.1-0.4 0.9-0.6 1.8-0.6 2.7v132.5c0 25.1 4.9 49.9 14.5 73 9.6 23.2 23.7 44.2 41.4 62 17.7 17.7 38.8 31.8 61.9 41.3 23.2 9.6 48 14.6 73.1 14.6h132.5c0.9 0 1.8-0.2 2.6-0.6 0.9-0.4 1.6-0.9 2.2-1.6 0.6-0.7 1-1.5 1.3-2.4 0.2-0.9 0.3-1.8 0.2-2.7q-0.9-4.5-2.4-8.7-1.5-4.3-3.6-8.4-2.2-4-4.9-7.6-2.7-3.7-5.9-6.9z"/>
		<path id="svg_3" class="s2" d="m702.5 312h122q-0.8-1.1-1.6-2.2-0.8-1.1-1.7-2.1-0.9-1-1.8-2-1-1-1.9-2l-273.8-274q-1-0.9-2-1.8-0.9-0.8-1.9-1.7-1-0.8-2.1-1.6-1-0.9-2-1.6v121.7c-0.1 21.9 4.2 43.7 12.6 63.9 8.4 20.3 20.6 38.8 36.1 54.3 15.5 15.5 33.9 27.9 54.2 36.3 20.2 8.4 42 12.8 63.9 12.8z"/>
		<path id="svg_4" class="s3" d="m334.8 266.7h0.2q87.4 0 87.4 87.4v0.2q0 87.5-87.4 87.5h-0.2q-87.4 0-87.4-87.5v-0.2q0-87.4 87.4-87.4z"/>
		<path id="svg_5" class="s3" d="m290.2 585l-132 170.9h534.5l-180.1-260-137.2 196.4z"/>
	</g>
</svg>