<svg version="1.2" xmlns="http://www.w3.org/2000/svg" viewBox="0 0 1024 1024" width="1024" height="1024">
	<title>mp3-svg</title>
	<style>
		.s0 { fill: #ff803f } 
		.s1 { fill: #f3671e } 
		.s2 { fill: #feceb4 } 
		.s3 { fill: #ffffff } 
	</style>
	<g id="Layer 1">
		<path class="s0" d="m159.9 22c-21 0-41.7 4.1-61.1 12.2-19.4 8-37 19.8-51.8 34.6-14.9 14.8-26.6 32.4-34.7 51.8-8 19.4-12.1 40.1-12.1 61.1v661.5c0 20.9 4.1 41.7 12.1 61.1 8.1 19.4 19.8 37 34.7 51.8 14.8 14.8 32.4 26.6 51.8 34.6 19.4 8.1 40.1 12.2 61.1 12.2h497.8c21 0 41.7-4.1 61.1-12.2 19.4-8 37-19.8 51.8-34.6 14.9-14.8 26.6-32.4 34.7-51.8 8-19.4 12.1-40.2 12.1-61.1v-492.4q0-6-1.2-11.9-1.1-5.9-3.4-11.4-2.2-5.6-5.5-10.6-3.3-5-7.5-9.3l-268-267.7q-4.1-4.1-8.9-7.4-4.9-3.3-10.2-5.6-5.4-2.3-11.1-3.5-5.6-1.3-11.5-1.4z"/>
		<path class="s1" d="m799.8 307.6l-268-267.7q-3.2-3.2-6.8-5.8-3.6-2.7-7.5-4.8-4-2.1-8.2-3.5-4.2-1.5-8.6-2.3c-0.9-0.2-1.8-0.1-2.6 0.1-0.9 0.3-1.7 0.7-2.3 1.3-0.7 0.6-1.2 1.3-1.6 2.1-0.3 0.8-0.4 1.7-0.4 2.6v129.6c0 24.5 4.8 48.8 14.2 71.4 9.4 22.7 23.1 43.2 40.5 60.6 17.3 17.3 37.9 31.1 60.5 40.4 22.7 9.4 47 14.3 71.5 14.3h129.6q1.3-0.1 2.5-0.7 1.2-0.5 2.1-1.5 0.9-1.1 1.3-2.3 0.3-1.3 0.2-2.6-0.9-4.4-2.4-8.6-1.5-4.2-3.6-8.2-2-3.9-4.7-7.6-2.6-3.6-5.7-6.8z"/>
		<path class="s2" d="m686.1 315.7h119.3q-0.8-1-1.6-2.1-0.8-1-1.6-2-0.8-1-1.7-2-0.8-1-1.7-2l-267-267.7q-0.9-1-1.9-1.9-0.9-0.8-2-1.7-1-0.8-2-1.6-1.1-0.7-2.2-1.4v119c0 21.4 4.2 42.6 12.3 62.3 8.2 19.8 20.1 37.8 35.2 52.9 15.1 15.2 33 27.2 52.7 35.5 19.7 8.3 40.8 12.6 62.2 12.7z"/>
		<path class="s3" d="m220.7 781.7c-20-1.1-38.7-9.9-52.5-24.4-13.7-14.5-21.3-33.7-21.3-53.7 0-19.9 7.6-39.1 21.3-53.6 13.8-14.6 32.5-23.3 52.5-24.4q6.3 0.1 12.6 1.2 6.2 1.1 12.3 3.2 6 2.1 11.6 5 5.6 3 10.7 6.8l4 3.2v-250.6c-0.1-3.5 0.5-7 1.8-10.3 1.3-3.3 3.2-6.2 5.6-8.8 2.5-2.5 5.4-4.5 8.6-5.9 3.2-1.4 6.7-2.2 10.2-2.2l258.2-31.6h1.9c3.6-0.1 7.1 0.5 10.4 1.8 3.3 1.3 6.3 3.2 8.8 5.7 2.6 2.4 4.6 5.4 5.9 8.6 1.4 3.3 2.1 6.8 2.1 10.3v294c0.1 5.1-0.3 10.2-1.3 15.3-1 5-2.5 9.9-4.5 14.6-2 4.7-4.5 9.2-7.4 13.4-2.9 4.2-6.3 8.1-10 11.6-3.6 3.5-7.5 6.7-11.7 9.5-4.1 2.7-8.6 5.1-13.2 7-4.6 1.9-9.4 3.3-14.4 4.3-4.9 1-9.9 1.5-14.9 1.5-20.7 0-40.6-8.3-55.2-22.9-14.7-14.7-22.9-34.6-22.9-55.3 0-20.7 8.2-40.6 22.9-55.2 14.6-14.7 34.5-22.9 55.2-22.9q6.4 0 12.7 1.1 6.2 1 12.3 3.1 6 2.1 11.6 5.1 5.6 3 10.7 6.8l3.9 3.2v-135.7l-260.9 28.2v214.3c0 10.3-1.9 20.4-5.8 29.9-3.9 9.5-9.6 18.2-16.8 25.5-7.2 7.3-15.8 13.1-25.2 17.1-9.5 4-19.6 6.1-29.8 6.2z"/>
	</g>
</svg>