<svg version="1.2" xmlns="http://www.w3.org/2000/svg" viewBox="0 0 1038 1024" width="1024" height="1010">
	<title>mp4-svg</title>
	<style>
		.s0 { fill: #41cc8b } 
		.s1 { fill: #05b25f } 
		.s2 { fill: #b0f9d7 } 
		.s3 { fill: #f5f6fa } 
	</style>
	<g>
		<path id="svg_1" class="s0" d="m163 10.8c-21.4 0-42.7 4.2-62.5 12.4-19.8 8.2-37.8 20.2-53 35.4-15.1 15.2-27.1 33.2-35.4 53-8.2 19.8-12.4 41-12.4 62.5v676.3c0 21.5 4.2 42.7 12.4 62.5 8.3 19.8 20.3 37.8 35.4 53 15.2 15.2 33.2 27.2 53 35.4 19.8 8.2 41.1 12.4 62.5 12.4h509c21.5 0.1 42.7-4.1 62.6-12.3 19.8-8.2 37.8-20.3 53-35.4 15.2-15.2 27.2-33.2 35.4-53.1 8.2-19.8 12.4-41 12.3-62.5v-503.5q0.1-6.1-1.1-12.1-1.2-5.9-3.5-11.6-2.3-5.6-5.7-10.7-3.4-5.1-7.7-9.4l-274-274q-4.3-4.4-9.4-7.8-5.1-3.4-10.7-5.8-5.7-2.3-11.7-3.5-5.9-1.2-12.1-1.2z"/>
		<path id="svg_2" class="s1" d="m817.3 303.1l-274-274q-3.3-3.3-6.9-6-3.7-2.7-7.8-4.9-4-2.1-8.3-3.6-4.3-1.5-8.8-2.3c-0.9-0.2-1.8-0.1-2.7 0.1-0.9 0.3-1.7 0.7-2.4 1.3-0.6 0.6-1.2 1.4-1.5 2.2-0.3 0.8-0.5 1.7-0.5 2.6v132.5c0 25.1 5 49.9 14.6 73.1 9.6 23.1 23.6 44.2 41.4 61.9 17.7 17.7 38.7 31.8 61.9 41.4 23.1 9.6 48 14.5 73 14.5h132.5q1.4 0 2.6-0.6 1.3-0.6 2.2-1.6 0.8-1.1 1.2-2.4 0.4-1.3 0.3-2.6-0.9-4.5-2.4-8.8-1.5-4.3-3.7-8.3-2.1-4-4.8-7.6-2.7-3.7-5.9-6.9z"/>
		<path id="svg_3" class="s2" d="m702.1 311.4h122q-0.8-1.2-1.6-2.2-0.8-1.1-1.6-2.1-0.9-1.1-1.7-2.1-0.9-1-1.9-1.9l-274-274q-1-1-2-1.9-1-0.9-2-1.7-1-0.9-2.1-1.7-1.1-0.8-2.2-1.5v121.7c0 22 4.3 43.7 12.7 64 8.4 20.3 20.7 38.7 36.2 54.3 15.5 15.5 34 27.8 54.2 36.2 20.3 8.5 42 12.8 64 12.9z"/>
		<path id="svg_4" class="s3" d="m155 400.8h369.5v288.3h-369.5z"/>
		<path id="svg_5" class="s3" d="m691.1 689.1l-124.3-82.7v-122.7l124.3-82.9z"/>
	</g>
</svg>