<svg version="1.2" xmlns="http://www.w3.org/2000/svg" viewBox="0 0 1024 1024" width="1024" height="1024">
	<title>pdf-svg</title>
	<style>
		.s0 { fill: #fc4a49 } 
		.s1 { fill: #f91716 } 
		.s2 { fill: #ffc3c3 } 
		.s3 { fill: #f5f6fa } 
	</style>
	<g id="Layer 1">
		<path class="s0" d="m166.3-0.2c-21.8 0-43.5 4.3-63.7 12.7-20.2 8.3-38.5 20.6-54 36-15.4 15.5-27.7 33.8-36 54-8.4 20.2-12.7 41.9-12.7 63.7v689.3c0 21.9 4.3 43.5 12.7 63.7 8.3 20.2 20.6 38.6 36 54 15.5 15.5 33.8 27.8 54 36.1 20.2 8.4 41.9 12.7 63.7 12.7h519.1c21.8 0 43.5-4.3 63.7-12.7 20.2-8.3 38.5-20.6 54-36.1 15.4-15.4 27.7-33.8 36-54 8.4-20.2 12.7-41.8 12.7-63.7v-513.4q0-6.2-1.3-12.3-1.2-6.1-3.6-11.8-2.4-5.8-5.9-10.9-3.4-5.2-7.8-9.6l-279.3-279.3q-4.4-4.4-9.6-7.9-5.2-3.4-10.9-5.8-5.8-2.3-11.9-3.5-6.1-1.2-12.3-1.2z"/>
		<path class="s1" d="m833.2 297.5l-279.3-279.3q-3.3-3.3-7.1-6-3.7-2.8-7.8-4.9-4.2-2.2-8.6-3.7-4.4-1.5-8.9-2.3c-0.9-0.1-1.8-0.1-2.7 0.2-0.9 0.2-1.7 0.6-2.4 1.2-0.6 0.6-1.2 1.3-1.5 2.1-0.4 0.9-0.6 1.7-0.6 2.6v135.1c0 25.6 5.1 50.9 14.9 74.6 9.8 23.6 24.2 45.1 42.3 63.1 18.1 18.1 39.6 32.4 63.3 42.2 23.6 9.7 49 14.7 74.6 14.6h135q1.4 0 2.6-0.5 1.3-0.6 2.2-1.6 0.9-1 1.3-2.3 0.5-1.3 0.3-2.7-1-4.6-2.6-9-1.6-4.4-3.8-8.5-2.2-4.1-5.1-7.9-2.8-3.7-6.1-7z"/>
		<path class="s2" d="m715.7 305.9h124.4q-0.8-1.1-1.6-2.2-0.8-1.1-1.7-2.2-0.8-1-1.7-2.1-1-1-1.9-1.9l-279.3-279.3q-1-1-2-1.9-1-0.9-2.1-1.8-1-0.8-2.1-1.7-1.1-0.8-2.2-1.5v124.3c0 22.4 4.4 44.5 12.9 65.2 8.6 20.6 21.1 39.4 36.9 55.2 15.8 15.8 34.6 28.4 55.3 36.9 20.6 8.6 42.8 13 65.1 13z"/>
		<path class="s3" d="m173.2 457.5h67.7c53.9 0 80.9 19.7 80.9 58.8 0.2 4.5-0.1 9.1-1.1 13.6-0.9 4.4-2.4 8.7-4.4 12.8-2.1 4.1-4.6 8-7.6 11.4-3 3.5-6.4 6.5-10.1 9.1q-6.3 4-13.1 7-6.8 3-14 5-7.1 1.9-14.5 2.7-7.4 0.7-14.8 0.4h-26.8v65.6h-42.2zm66.2 91.1c28 0 41.8-10.7 41.8-32.4q0.2-3.3-0.4-6.5-0.6-3.3-2.1-6.3-1.4-3-3.6-5.5-2.1-2.5-4.9-4.4-3.7-1.9-7.7-3.2-3.9-1.4-8-2.2-4.1-0.8-8.3-1-4.2-0.3-8.4 0h-23.2v61.5zm120.5-91.1h56.4c6.6-0.4 13.3-0.3 19.9 0.5 6.6 0.8 13.1 2.1 19.5 4.1 6.3 1.9 12.5 4.4 18.4 7.4 5.9 3.1 11.5 6.7 16.8 10.7 4.7 4.5 8.9 9.5 12.5 14.9 3.6 5.3 6.6 11.1 9 17.2 2.3 6 4 12.3 5 18.7 1 6.4 1.2 13 0.8 19.4 0.4 6.5 0.2 13.1-0.8 19.5-1 6.5-2.6 12.8-5 18.9-2.3 6.1-5.3 11.9-8.9 17.3-3.5 5.5-7.7 10.5-12.4 15-5 4.2-10.4 7.9-16.1 11-5.7 3.2-11.7 5.8-17.9 7.8-6.2 2-12.5 3.5-19 4.3-6.5 0.9-13 1.1-19.5 0.7h-58.7zm53.9 157.3c8.6 1.1 17.3 0.1 25.5-2.7 8.3-2.9 15.7-7.7 21.7-13.9 6.1-6.3 10.6-13.8 13.2-22.1 2.6-8.3 3.2-17.1 1.9-25.7 1.2-8.5 0.5-17.2-2.2-25.3-2.6-8.2-7.2-15.7-13.2-21.8-6.1-6.1-13.5-10.7-21.6-13.5-8.1-2.8-16.8-3.6-25.3-2.4h-12.8v127.6zm144.7-157.3h127.7v31.2h-86.3v48.8h73v31.4h-73v76.5h-41.4z"/>
	</g>
</svg>