<svg version="1.2" xmlns="http://www.w3.org/2000/svg" viewBox="0 0 1024 1024" width="1024" height="1024">
	<title>xls-svg</title>
	<style>
		.s0 { fill: #41cc8b } 
		.s1 { fill: #05b25f } 
		.s2 { fill: #b0f9d7 } 
		.s3 { fill: #f5f6fa } 
	</style>
	<g>
		<path id="svg_1" class="s0" d="m151.6 52.7c-20 0.1-39.8 4.2-58.2 11.9-18.4 7.7-35.1 19-49.2 33.2-14.1 14.1-25.2 30.9-32.8 49.4-7.7 18.4-11.6 38.2-11.6 58.2v632.2c0.1 19.9 4.2 39.6 11.8 57.9 7.7 18.4 18.9 35.1 32.9 49.1 14.1 14.1 30.8 25.3 49.1 33 18.4 7.6 38.1 11.6 58 11.8h476c20.1 0 39.9-4 58.4-11.7 18.6-7.6 35.4-18.9 49.6-33.1 14.2-14.1 25.4-31 33.1-49.5 7.6-18.5 11.6-38.4 11.6-58.4v-469.7q-0.1-5.7-1.2-11.2-1.1-5.5-3.3-10.7-2.2-5.2-5.4-9.8-3.2-4.7-7.2-8.6l-255.9-257.6q-4.1-4.1-8.9-7.3-4.7-3.2-10-5.4-5.3-2.2-11-3.3-5.6-1.1-11.4-1.1z"/>
		<path id="svg_2" class="s1" d="m763.2 326.7l-255.9-257.6q-3.1-3-6.5-5.5-3.5-2.6-7.2-4.6-3.8-2-7.9-3.4-4-1.4-8.2-2.2-1.3-0.2-2.5 0.2-1.3 0.3-2.2 1.2-1 0.8-1.6 2-0.5 1.2-0.5 2.5v124.5c0 23.5 4.6 46.7 13.6 68.3 9 21.7 22.1 41.3 38.7 57.9 16.6 16.6 36.2 29.7 57.9 38.7 21.6 9 44.8 13.6 68.3 13.6h123.4q1.3 0 2.4-0.5 1.2-0.6 2.1-1.6 0.8-0.9 1.2-2.2 0.3-1.2 0.1-2.5-0.8-4.1-2.1-8-1.4-3.9-3.3-7.6-2-3.6-4.4-7-2.5-3.3-5.4-6.2z"/>
		<path id="svg_3" class="s2" d="m655.5 333.7h114q-0.7-0.9-1.4-1.9-0.8-0.9-1.6-1.8-0.8-0.8-1.6-1.7-0.8-0.8-1.7-1.6l-255.9-257.6-7.8-6.3v114.5c0 20.5 4 40.8 11.8 59.8 7.9 18.9 19.3 36.2 33.8 50.7 14.5 14.5 31.7 26 50.6 33.9 19 7.9 39.3 12 59.8 12z"/>
		<path id="svg_4" class="s3" d="m80.1 471.9h117.1v28.3h-80.3v39.8h67.2v28.8h-67.2v46.8h82v28.8h-118.8zm182.5 104l-42-61.8h40.6l14.2 23.4q6.4 11.2 12.7 21.8l5.1-10.8 6.4-11 11.9-23.4h39.6l-41.9 66.3 44.7 63.6h-41l-15.9-23.4-6.8-12.8-7-11.3-7.1 11.3-6.1 11.7-13.3 23.4h-38.9zm126 53.1c-3.3-3.2-6.3-6.8-8.9-10.6-2.6-3.9-4.7-8-6.4-12.3-1.7-4.3-3-8.8-3.8-13.3-0.7-4.6-1-9.3-0.8-13.9-0.2-4.7 0.2-9.5 1.1-14.2 0.8-4.7 2.2-9.3 4.1-13.6 1.9-4.4 4.2-8.6 7-12.4 2.8-3.9 6-7.4 9.6-10.6q5.3-4.4 11.3-7.9 6-3.4 12.6-5.6 6.5-2.3 13.4-3.4 6.8-1.1 13.7-0.9 5.7 0 11.2 0.9 5.6 1 10.9 2.8 5.3 1.9 10.3 4.6 4.9 2.7 9.3 6.2l-17.8 22q-2.3-2-4.8-3.5-2.6-1.6-5.4-2.7-2.9-1.1-5.8-1.7-3-0.6-6-0.7-3.7-0.2-7.3 0.5-3.7 0.7-7.1 2.1-3.4 1.5-6.4 3.7-3 2.1-5.4 4.9-2.7 3-4.7 6.5-2 3.5-3.4 7.3-1.3 3.8-1.9 7.7-0.5 4-0.3 8-0.2 3.9 0.4 7.8 0.5 3.9 1.8 7.6 1.3 3.7 3.3 7.1 2 3.4 4.5 6.3 2.4 2.7 5.4 4.8 2.9 2.1 6.2 3.6 3.3 1.4 6.8 2.1 3.6 0.6 7.2 0.5 3.8-0.2 7.5-1 3.8-0.8 7.3-2.2 3.6-1.4 6.8-3.4 3.3-1.9 6.2-4.4l14.8 23.4q-5 4-10.5 7-5.6 3-11.6 5-5.9 2-12.2 2.9-6.2 1-12.5 0.8-6.8 0.3-13.5-0.7-6.7-1-13.1-3.3-6.4-2.3-12.2-5.8-5.8-3.5-10.9-8zm135.4-0.2c-3.5-3.1-6.6-6.6-9.3-10.4-2.6-3.8-4.9-7.9-6.7-12.2-1.8-4.3-3.1-8.8-3.9-13.4-0.9-4.6-1.2-9.2-1-13.9-0.1-4.6 0.2-9.3 1-13.9 0.9-4.6 2.2-9.1 3.9-13.4 1.8-4.3 4-8.4 6.6-12.3 2.6-3.9 5.5-7.5 8.9-10.7q4.7-4.5 10.1-8 5.5-3.5 11.5-5.8 6-2.4 12.4-3.5 6.4-1.1 12.8-1c4.1-0.2 8.3 0 12.4 0.7 4 0.6 8 1.7 11.9 3.2 3.8 1.5 7.5 3.5 11 5.8 3.4 2.2 6.6 4.9 9.4 7.9q3.9 4.6 6.9 9.9 2.9 5.3 4.8 11 1.9 5.8 2.8 11.8 0.8 6 0.5 12 0.1 2 0 3.9-0.1 2-0.3 3.9-0.2 1.9-0.6 3.9-0.4 1.9-0.9 3.8h-88.6q0.5 3.4 1.6 6.6 1 3.3 2.7 6.3 1.7 3 3.9 5.7 2.3 2.6 5 4.8 2.8 2.1 5.9 3.8 3.2 1.7 6.5 2.7 3.4 1.1 6.9 1.6 3.6 0.5 7.1 0.3 4.2 0 8.4-0.6 4.2-0.6 8.3-1.8 4-1.2 7.9-2.9 3.9-1.6 7.5-3.8l12.9 21q-5.6 3.5-11.7 6.2-6 2.7-12.4 4.5-6.3 1.8-12.9 2.8-6.5 0.9-13.1 0.8-6.8 0.3-13.6-0.6-6.7-1-13.2-3.2-6.4-2.2-12.3-5.6-5.9-3.4-11-7.9zm73.5-63.2c0-19.2-9.1-28.8-27.2-28.8q-2.7-0.1-5.4 0.3-2.7 0.5-5.3 1.4-2.6 0.9-5 2.3-2.3 1.4-4.4 3.2-2.3 2.1-4.2 4.6-1.9 2.4-3.3 5.2-1.4 2.7-2.3 5.7-0.9 3-1.2 6.1zm63 42.1v-149.4h37.2v149.4q-0.1 1.1 0 2.2 0.2 1 0.5 2.1 0.3 1 0.8 1.9 0.6 1 1.3 1.8 0.4 0.6 1 1 0.6 0.5 1.3 0.8 0.6 0.3 1.4 0.4 0.7 0.2 1.4 0.1h5.2l4.4 25.3q-2.3 0.8-4.7 1.4-2.4 0.6-4.8 1-2.5 0.4-5 0.6-2.4 0.1-4.9 0.1c-23.4 0.4-35.1-12.7-35.1-38.7z"/>
	</g>
</svg>