<svg version="1.2" xmlns="http://www.w3.org/2000/svg" viewBox="0 0 1024 1024" width="1024" height="1024">
	<title>zip-svg</title>
	<style>
		.s0 { fill: #ff803f } 
		.s1 { fill: #f3671e } 
		.s2 { fill: #feceb4 } 
		.s3 { fill: #f5f6fa } 
	</style>
	<g id="Layer 1">
		<path class="s0" d="m165.3 4.1c-21.8 0-43.3 4.2-63.4 12.5-20.1 8.4-38.4 20.6-53.8 35.9-15.4 15.4-27.6 33.7-35.9 53.8-8.3 20.1-12.6 41.6-12.5 63.4v685.7c-0.1 21.8 4.2 43.3 12.5 63.4 8.3 20.1 20.5 38.4 35.9 53.8 15.4 15.4 33.7 27.6 53.8 35.9 20.1 8.3 41.6 12.5 63.4 12.5h516c21.8 0 43.3-4.3 63.4-12.6 20.1-8.3 38.3-20.5 53.7-35.9 15.4-15.4 27.6-33.6 35.9-53.7 8.3-20.1 12.6-41.6 12.6-63.4v-510.5q-0.1-6-1.3-11.9-1.3-5.9-3.6-11.4-2.4-5.6-5.7-10.6-3.4-5-7.7-9.2l-277.8-279.4q-4.4-4.4-9.5-7.8-5.2-3.4-10.9-5.8-5.7-2.3-11.8-3.5-6.1-1.2-12.3-1.2z"/>
		<path class="s1" d="m828.6 301.8l-277.8-279.4q-3.3-3.3-7-6-3.8-2.7-7.9-4.8-4.1-2.2-8.4-3.6-4.4-1.5-9-2.4c-0.9-0.1-1.8-0.1-2.7 0.2-0.9 0.2-1.7 0.7-2.3 1.3-0.7 0.6-1.3 1.4-1.6 2.2-0.4 0.9-0.5 1.8-0.5 2.7v134.3c0 25.4 5 50.6 14.8 74.1 9.7 23.5 23.9 44.8 41.9 62.8 18 17.9 39.3 32.2 62.8 41.9 23.5 9.8 48.6 14.8 74.1 14.8h134.3c0.9 0 1.8-0.2 2.6-0.6 0.8-0.4 1.5-0.9 2.1-1.6 0.6-0.6 1-1.4 1.3-2.3 0.2-0.9 0.2-1.8 0.1-2.7q-0.9-4.3-2.4-8.5-1.6-4.2-3.7-8.2-2.1-3.9-4.8-7.5-2.7-3.6-5.9-6.7z"/>
		<path class="s2" d="m711.8 308.9h123.7q-0.8-1.2-1.6-2.2-0.8-1.1-1.6-2.2-0.9-1-1.8-2-0.9-1-1.9-2l-277.8-278.1q-1-0.9-2-1.8-1-0.9-2.1-1.8-1-0.9-2.1-1.7-1.1-0.8-2.2-1.6v123.7c0 22.3 4.4 44.3 12.9 64.9 8.5 20.6 21 39.2 36.7 55 15.7 15.7 34.4 28.2 55 36.8 20.5 8.5 42.6 12.9 64.8 13z"/>
		<path class="s3" d="m212 622.5l95.5-132.8h-86.4v-31h136.4v22.1l-95.2 132.8h96.2v31.3h-146.5zm182.9-163.8h41.1v186.1h-41.1zm91.4 0h67.3c53.6 0 80.2 19.3 80.2 58.4 0.3 4.6-0.1 9.1-1 13.5-0.9 4.5-2.4 8.8-4.4 12.8-2 4.1-4.5 7.9-7.4 11.4-2.9 3.4-6.3 6.5-10 9.1q-6.3 4-13.1 6.9-6.8 3-13.9 4.9-7.2 1.9-14.6 2.7-7.4 0.8-14.8 0.4h-27.4v66.1h-40.9zm65.5 90.6c27.9 0 41.9-10.9 41.9-32.2q0.2-3.3-0.4-6.6-0.6-3.3-2.1-6.3-1.5-3-3.7-5.6-2.2-2.5-5-4.4-3.7-1.7-7.6-3-3.9-1.3-8-2.1-4-0.7-8.1-1-4.1-0.2-8.3 0h-23.3v61.2z"/>
	</g>
</svg>